<mxfile host="app.diagrams.net" modified="2022-05-26T15:09:32.839Z" agent="5.0 (Windows NT 10.0; Win64; x64) AppleWebKit/537.36 (KHTML, like Gecko) Chrome/101.0.4951.64 Safari/537.36 Edg/101.0.1210.53" etag="HUnFYcTedo9KGjp47v11" version="18.1.2" type="github">
  <diagram id="p7DJkMv0mHtxex-uztXM" name="CLI">
    <mxGraphModel dx="2405" dy="804" grid="0" gridSize="10" guides="1" tooltips="1" connect="1" arrows="1" fold="1" page="1" pageScale="1" pageWidth="827" pageHeight="1169" math="0" shadow="0">
      <root>
        <mxCell id="0" />
        <mxCell id="1" parent="0" />
        <mxCell id="JqTIgr0YfftWjUP3YL3X-1" value="Flowchart - CLI: MD-Links" style="text;strokeColor=none;fillColor=none;html=1;fontSize=24;fontStyle=1;verticalAlign=middle;align=center;rounded=1;fontColor=#393C56;" vertex="1" parent="1">
          <mxGeometry x="-733" y="10" width="640" height="40" as="geometry" />
        </mxCell>
        <mxCell id="JqTIgr0YfftWjUP3YL3X-2" style="edgeStyle=orthogonalEdgeStyle;rounded=1;orthogonalLoop=1;jettySize=auto;html=1;exitX=0.5;exitY=1;exitDx=0;exitDy=0;fillColor=#F2CC8F;strokeColor=#E07A5F;entryX=0.5;entryY=0;entryDx=0;entryDy=0;labelBackgroundColor=#F4F1DE;fontColor=#393C56;" edge="1" parent="1" target="JqTIgr0YfftWjUP3YL3X-4">
          <mxGeometry relative="1" as="geometry">
            <mxPoint x="-400" y="166" as="targetPoint" />
            <mxPoint x="-400.00000000000045" y="116" as="sourcePoint" />
          </mxGeometry>
        </mxCell>
        <UserObject label="&lt;font style=&quot;font-size: 10px;&quot;&gt;Start&lt;/font&gt;" placeholders="1" name="Variable" id="JqTIgr0YfftWjUP3YL3X-3">
          <mxCell style="text;html=1;strokeColor=none;fillColor=none;align=center;verticalAlign=middle;whiteSpace=wrap;overflow=hidden;rounded=1;fontColor=#393C56;" vertex="1" parent="1">
            <mxGeometry x="-440" y="80" width="80" height="20" as="geometry" />
          </mxCell>
        </UserObject>
        <mxCell id="JqTIgr0YfftWjUP3YL3X-4" value="&lt;span style=&quot;&quot;&gt;&lt;font style=&quot;font-size: 10px;&quot;&gt;md-links&amp;nbsp;&lt;/font&gt;&lt;/span&gt;&lt;span style=&quot;font-size: 10px;&quot;&gt;&amp;lt;path-to-file&amp;gt; [options]&lt;/span&gt;" style="shape=parallelogram;perimeter=parallelogramPerimeter;whiteSpace=wrap;html=1;fixedSize=1;fillColor=#F2CC8F;strokeColor=#E07A5F;rounded=1;fontColor=#393C56;" vertex="1" parent="1">
          <mxGeometry x="-490" y="170" width="180" height="40" as="geometry" />
        </mxCell>
        <mxCell id="JqTIgr0YfftWjUP3YL3X-5" value="" style="ellipse;whiteSpace=wrap;html=1;aspect=fixed;fillColor=#F2CC8F;strokeColor=#E07A5F;rounded=1;fontColor=#393C56;" vertex="1" parent="1">
          <mxGeometry x="-410" y="100" width="20" height="20" as="geometry" />
        </mxCell>
        <mxCell id="JqTIgr0YfftWjUP3YL3X-6" value="" style="endArrow=classic;html=1;rounded=0;exitX=0.5;exitY=1;exitDx=0;exitDy=0;fillColor=#F2CC8F;strokeColor=#E07A5F;labelBackgroundColor=#F4F1DE;fontColor=#393C56;" edge="1" parent="1" source="JqTIgr0YfftWjUP3YL3X-4">
          <mxGeometry width="50" height="50" relative="1" as="geometry">
            <mxPoint x="-250" y="290" as="sourcePoint" />
            <mxPoint x="-400.00000000000045" y="280" as="targetPoint" />
          </mxGeometry>
        </mxCell>
        <mxCell id="JqTIgr0YfftWjUP3YL3X-7" value="&lt;font style=&quot;font-size: 10px;&quot;&gt;Options&lt;/font&gt;" style="rhombus;whiteSpace=wrap;html=1;fillColor=#F2CC8F;strokeColor=#E07A5F;fontColor=#393C56;" vertex="1" parent="1">
          <mxGeometry x="-430" y="280" width="60" height="60" as="geometry" />
        </mxCell>
        <mxCell id="JqTIgr0YfftWjUP3YL3X-8" value="" style="endArrow=classic;html=1;rounded=1;fontSize=10;fillColor=#F2CC8F;strokeColor=#E07A5F;labelBackgroundColor=#F4F1DE;fontColor=#393C56;" edge="1" parent="1">
          <mxGeometry width="50" height="50" relative="1" as="geometry">
            <mxPoint x="-400.00000000000045" y="360" as="sourcePoint" />
            <mxPoint x="-550.0000000000005" y="400" as="targetPoint" />
            <Array as="points">
              <mxPoint x="-550" y="360" />
            </Array>
          </mxGeometry>
        </mxCell>
        <mxCell id="JqTIgr0YfftWjUP3YL3X-9" value="" style="endArrow=classic;html=1;rounded=1;fontSize=10;exitX=0.5;exitY=1;exitDx=0;exitDy=0;fillColor=#F2CC8F;strokeColor=#E07A5F;labelBackgroundColor=#F4F1DE;fontColor=#393C56;" edge="1" parent="1" source="JqTIgr0YfftWjUP3YL3X-7">
          <mxGeometry width="50" height="50" relative="1" as="geometry">
            <mxPoint x="-340" y="350" as="sourcePoint" />
            <mxPoint x="-400.00000000000045" y="400" as="targetPoint" />
          </mxGeometry>
        </mxCell>
        <mxCell id="JqTIgr0YfftWjUP3YL3X-10" value="" style="endArrow=classic;html=1;rounded=1;fontSize=10;fillColor=#F2CC8F;strokeColor=#E07A5F;labelBackgroundColor=#F4F1DE;fontColor=#393C56;" edge="1" parent="1">
          <mxGeometry width="50" height="50" relative="1" as="geometry">
            <mxPoint x="-400.00000000000045" y="360" as="sourcePoint" />
            <mxPoint x="-240.00000000000045" y="400" as="targetPoint" />
            <Array as="points">
              <mxPoint x="-240" y="360" />
            </Array>
          </mxGeometry>
        </mxCell>
        <mxCell id="JqTIgr0YfftWjUP3YL3X-11" value="&lt;span style=&quot;color: rgb(2, 2, 3); text-align: left;&quot;&gt;href, text, file,&lt;br&gt;&lt;/span&gt;&lt;span style=&quot;color: rgb(2, 2, 3); text-align: left;&quot;&gt;status,ok&lt;br&gt;exm: https//:www.google.com&lt;br&gt;ok 301&lt;br&gt;&lt;/span&gt;" style="shape=dataStorage;whiteSpace=wrap;html=1;fixedSize=1;fontSize=10;fillColor=#F2CC8F;strokeColor=#E07A5F;fontColor=#393C56;" vertex="1" parent="1">
          <mxGeometry x="-630" y="490" width="160" height="50" as="geometry" />
        </mxCell>
        <mxCell id="JqTIgr0YfftWjUP3YL3X-12" value="Validate" style="rounded=1;whiteSpace=wrap;html=1;fontSize=10;fillColor=#F2CC8F;strokeColor=#E07A5F;fontColor=#393C56;" vertex="1" parent="1">
          <mxGeometry x="-610" y="399" width="120" height="35" as="geometry" />
        </mxCell>
        <mxCell id="JqTIgr0YfftWjUP3YL3X-13" value="Stats" style="rounded=1;whiteSpace=wrap;html=1;fontSize=10;fillColor=#F2CC8F;strokeColor=#E07A5F;fontColor=#393C56;" vertex="1" parent="1">
          <mxGeometry x="-460" y="399" width="120" height="35" as="geometry" />
        </mxCell>
        <mxCell id="JqTIgr0YfftWjUP3YL3X-14" value="" style="endArrow=classic;html=1;rounded=1;fontSize=10;exitX=0.5;exitY=1;exitDx=0;exitDy=0;labelBackgroundColor=#F4F1DE;strokeColor=#E07A5F;fontColor=#393C56;" edge="1" parent="1" source="JqTIgr0YfftWjUP3YL3X-13">
          <mxGeometry width="50" height="50" relative="1" as="geometry">
            <mxPoint x="-600" y="450" as="sourcePoint" />
            <mxPoint x="-400.00000000000045" y="490" as="targetPoint" />
            <Array as="points">
              <mxPoint x="-400" y="450" />
            </Array>
          </mxGeometry>
        </mxCell>
        <mxCell id="JqTIgr0YfftWjUP3YL3X-15" value="&lt;span style=&quot;color: rgb(2, 2, 3); text-align: left;&quot;&gt;Total: x&lt;br&gt;Unique: x&lt;br&gt;&lt;/span&gt;" style="shape=dataStorage;whiteSpace=wrap;html=1;fixedSize=1;fontSize=10;fillColor=#F2CC8F;strokeColor=#E07A5F;fontColor=#393C56;" vertex="1" parent="1">
          <mxGeometry x="-465" y="490" width="135" height="48" as="geometry" />
        </mxCell>
        <mxCell id="JqTIgr0YfftWjUP3YL3X-16" value="Validate / Stats" style="rounded=1;whiteSpace=wrap;html=1;fontSize=10;fillColor=#F2CC8F;strokeColor=#E07A5F;fontColor=#393C56;" vertex="1" parent="1">
          <mxGeometry x="-300" y="399" width="120" height="35" as="geometry" />
        </mxCell>
        <mxCell id="JqTIgr0YfftWjUP3YL3X-17" value="" style="endArrow=classic;html=1;rounded=1;fontSize=10;exitX=0.5;exitY=1;exitDx=0;exitDy=0;labelBackgroundColor=#F4F1DE;strokeColor=#E07A5F;fontColor=#393C56;" edge="1" parent="1">
          <mxGeometry width="50" height="50" relative="1" as="geometry">
            <mxPoint x="-240.00000000000045" y="432" as="sourcePoint" />
            <mxPoint x="-240.00000000000045" y="490" as="targetPoint" />
            <Array as="points">
              <mxPoint x="-240" y="450" />
            </Array>
          </mxGeometry>
        </mxCell>
        <mxCell id="JqTIgr0YfftWjUP3YL3X-18" value="&lt;span style=&quot;color: rgb(2, 2, 3); text-align: left;&quot;&gt;Total: x&lt;br&gt;Unique: x&lt;br&gt;Broken: x&lt;br&gt;&lt;/span&gt;" style="shape=dataStorage;whiteSpace=wrap;html=1;fixedSize=1;fontSize=10;fillColor=#F2CC8F;strokeColor=#E07A5F;fontColor=#393C56;" vertex="1" parent="1">
          <mxGeometry x="-310" y="490" width="140" height="48" as="geometry" />
        </mxCell>
        <mxCell id="JqTIgr0YfftWjUP3YL3X-19" value="" style="endArrow=classic;html=1;rounded=1;fontSize=10;exitX=0.5;exitY=1;exitDx=0;exitDy=0;labelBackgroundColor=#F4F1DE;strokeColor=#E07A5F;fontColor=#393C56;" edge="1" parent="1" source="JqTIgr0YfftWjUP3YL3X-12">
          <mxGeometry width="50" height="50" relative="1" as="geometry">
            <mxPoint x="-350" y="470" as="sourcePoint" />
            <mxPoint x="-550.0000000000005" y="490" as="targetPoint" />
          </mxGeometry>
        </mxCell>
        <UserObject label="&lt;font style=&quot;font-size: 10px;&quot;&gt;Finish&lt;/font&gt;" placeholders="1" name="Variable" id="JqTIgr0YfftWjUP3YL3X-20">
          <mxCell style="text;html=1;strokeColor=none;fillColor=none;align=center;verticalAlign=middle;whiteSpace=wrap;overflow=hidden;rounded=1;fontColor=#393C56;" vertex="1" parent="1">
            <mxGeometry x="-437.5" y="650" width="80" height="20" as="geometry" />
          </mxCell>
        </UserObject>
        <mxCell id="JqTIgr0YfftWjUP3YL3X-21" value="" style="ellipse;whiteSpace=wrap;html=1;aspect=fixed;fillColor=#F2CC8F;strokeColor=#E07A5F;rounded=1;fontColor=#393C56;" vertex="1" parent="1">
          <mxGeometry x="-407.5" y="670" width="20" height="20" as="geometry" />
        </mxCell>
        <mxCell id="JqTIgr0YfftWjUP3YL3X-22" value="" style="endArrow=classic;html=1;rounded=1;fontSize=10;exitX=0.5;exitY=1;exitDx=0;exitDy=0;entryX=0;entryY=0.5;entryDx=0;entryDy=0;labelBackgroundColor=#F4F1DE;strokeColor=#E07A5F;fontColor=#393C56;" edge="1" parent="1" source="JqTIgr0YfftWjUP3YL3X-11" target="JqTIgr0YfftWjUP3YL3X-21">
          <mxGeometry width="50" height="50" relative="1" as="geometry">
            <mxPoint x="-410" y="650" as="sourcePoint" />
            <mxPoint x="-360" y="600" as="targetPoint" />
            <Array as="points">
              <mxPoint x="-550" y="680" />
            </Array>
          </mxGeometry>
        </mxCell>
        <mxCell id="JqTIgr0YfftWjUP3YL3X-23" value="" style="endArrow=classic;html=1;rounded=1;fontSize=10;exitX=0.5;exitY=1;exitDx=0;exitDy=0;entryX=0.5;entryY=0;entryDx=0;entryDy=0;labelBackgroundColor=#F4F1DE;strokeColor=#E07A5F;fontColor=#393C56;" edge="1" parent="1" source="JqTIgr0YfftWjUP3YL3X-15" target="JqTIgr0YfftWjUP3YL3X-20">
          <mxGeometry width="50" height="50" relative="1" as="geometry">
            <mxPoint x="-410" y="650" as="sourcePoint" />
            <mxPoint x="-360" y="600" as="targetPoint" />
          </mxGeometry>
        </mxCell>
        <mxCell id="JqTIgr0YfftWjUP3YL3X-24" value="" style="endArrow=classic;html=1;rounded=1;fontSize=10;exitX=0.543;exitY=1.031;exitDx=0;exitDy=0;exitPerimeter=0;entryX=1;entryY=0.5;entryDx=0;entryDy=0;labelBackgroundColor=#F4F1DE;strokeColor=#E07A5F;fontColor=#393C56;" edge="1" parent="1" source="JqTIgr0YfftWjUP3YL3X-18" target="JqTIgr0YfftWjUP3YL3X-21">
          <mxGeometry width="50" height="50" relative="1" as="geometry">
            <mxPoint x="-410" y="650" as="sourcePoint" />
            <mxPoint x="-360" y="600" as="targetPoint" />
            <Array as="points">
              <mxPoint x="-234" y="680" />
            </Array>
          </mxGeometry>
        </mxCell>
      </root>
    </mxGraphModel>
  </diagram>
</mxfile>
